#define test3_width 13
#define test3_height 13
static char test3_bits[] = {
 0x00,0x00,0xe0,0x01,0xe0,0x01,0xe0,0x01,0xe0,0x01,0xe0,0x01,0xe0,0x01,0xfe,
 0x1f,0xfc,0x0f,0xf0,0x03,0xe0,0x01,0xe0,0x01,0xc0,0x00};
