#define eject_width 16
#define eject_height 16
static char eject_bits[] = {
   0x00, 0x00, 0x00, 0x00, 0x00, 0x01, 0x80, 0x03, 0xc0, 0x06, 0x60, 0x0c,
   0x30, 0x18, 0x18, 0x30, 0xf8, 0x3f, 0xf8, 0x3f, 0x00, 0x00, 0x00, 0x00,
   0xf8, 0x3f, 0xf8, 0x3f, 0x00, 0x00, 0x00, 0x00};
