#define scre_width 25
#define scre_height 70
static unsigned char scre_bits[] = {
  0x00, 0x00, 0x00, 0x00, 0x00, 0x00, 0x00, 0x00, 0x00, 0x00, 0x00, 0x00,
  0x00, 0x00, 0x00, 0x00, 0x00, 0xff, 0x01, 0x00, 0x80, 0x00, 0x02, 0x00,
  0x40, 0x00, 0x04, 0x00, 0x40, 0x44, 0x04, 0x00, 0x40, 0xaa, 0x04, 0x00,
  0x40, 0xaa, 0x04, 0x00, 0x40, 0xaa, 0x04, 0x00, 0x40, 0xaa, 0x04, 0x00,
  0x40, 0xaa, 0x04, 0x00, 0x40, 0xaa, 0x04, 0x00, 0x40, 0xaa, 0x04, 0x00,
  0x40, 0x88, 0x04, 0x00, 0x40, 0x00, 0x06, 0x00, 0x80, 0x01, 0x03, 0x00,
  0x00, 0x81, 0x01, 0x00, 0x00, 0xc2, 0x00, 0x00, 0x00, 0xc2, 0x00, 0x00,
  0x00, 0xc2, 0x00, 0x00, 0x00, 0x81, 0x01, 0x00, 0x80, 0x01, 0x03, 0x00,
  0x00, 0xff, 0x01, 0x00, 0x00, 0x44, 0x00, 0x00, 0x00, 0x44, 0x00, 0x00,
  0x00, 0x44, 0x00, 0x00, 0x00, 0x44, 0x00, 0x00, 0x00, 0x44, 0x00, 0x00,
  0x00, 0x44, 0x00, 0x00, 0x00, 0x44, 0x00, 0x00, 0x00, 0x44, 0x00, 0x00,
  0x00, 0x44, 0x00, 0x00, 0x00, 0x44, 0x00, 0x00, 0x00, 0x44, 0x00, 0x00,
  0x00, 0x44, 0x00, 0x00, 0x00, 0x44, 0x00, 0x00, 0x00, 0x44, 0x00, 0x00,
  0x00, 0x44, 0x00, 0x00, 0x00, 0x44, 0x00, 0x00, 0x00, 0x82, 0x00, 0x00,
  0x00, 0x82, 0x00, 0x00, 0x00, 0x01, 0x01, 0x00, 0x00, 0x01, 0x01, 0x00,
  0x80, 0x00, 0x02, 0x00, 0x80, 0x00, 0x02, 0x00, 0x00, 0x01, 0x01, 0x00,
  0x00, 0x01, 0x01, 0x00, 0x00, 0x01, 0x01, 0x00, 0x00, 0x82, 0x00, 0x00,
  0x00, 0x82, 0x00, 0x00, 0x00, 0x82, 0x00, 0x00, 0x00, 0x7c, 0x00, 0x00,
  0x00, 0x00, 0x00, 0x00, 0x00, 0x00, 0x00, 0x00, 0x80, 0x07, 0x00, 0x00,
  0xc0, 0x0c, 0x00, 0x00, 0x60, 0x18, 0x00, 0x00, 0x60, 0xd8, 0x07, 0x00,
  0x60, 0x58, 0x06, 0x00, 0x60, 0x18, 0x03, 0x00, 0x60, 0x98, 0x01, 0x00,
  0xc0, 0xcc, 0x04, 0x00, 0x80, 0xc7, 0x07, 0x00, 0x00, 0x00, 0x00, 0x00,
  0x00, 0x00, 0x00, 0x00, 0x00, 0x00, 0x00, 0x00, 0x00, 0x00, 0x00, 0x00,
  0x00, 0x00, 0x00, 0x00, };
