#define pause_width 16
#define pause_height 16
static char pause_bits[] = {
   0x00, 0x00, 0x30, 0x06, 0x30, 0x06, 0x30, 0x06, 0x30, 0x06, 0x30, 0x06,
   0x30, 0x06, 0x30, 0x06, 0x30, 0x06, 0x30, 0x06, 0x30, 0x06, 0x30, 0x06,
   0x30, 0x06, 0x30, 0x06, 0x00, 0x00, 0x00, 0x00};
