#define zig-zag_width 25
#define zig-zag_height 25
static unsigned char zig-zag_bits[] = {
  0x11, 0x11, 0x11, 0x01, 0x22, 0x22, 0x22, 0x00, 0x44, 0x44, 0x44, 0x00,
  0x88, 0x88, 0x88, 0x00, 0x44, 0x44, 0x44, 0x00, 0x22, 0x22, 0x22, 0x00,
  0x11, 0x11, 0x11, 0x01, 0x22, 0x22, 0x22, 0x00, 0x44, 0x44, 0x44, 0x00,
  0x88, 0x88, 0x88, 0x00, 0x44, 0x44, 0x44, 0x00, 0x22, 0x22, 0x22, 0x00,
  0x11, 0x11, 0x11, 0x01, 0x22, 0x22, 0x22, 0x00, 0x44, 0x44, 0x44, 0x00,
  0x88, 0x88, 0x88, 0x00, 0x44, 0x44, 0x44, 0x00, 0x22, 0x22, 0x22, 0x00,
  0x11, 0x11, 0x11, 0x01, 0x22, 0x22, 0x22, 0x00, 0x44, 0x44, 0x44, 0x00,
  0x88, 0x88, 0x88, 0x00, 0x44, 0x44, 0x44, 0x00, 0x22, 0x22, 0x22, 0x00,
  0x11, 0x11, 0x11, 0x01, };
