#define mini-close_width 12
#define mini-close_height 10
static char mini-close_bits[] = {
  0x00, 0x00, 0x0c, 0x00, 0x9c, 0x00, 0xf8, 0x00, 0xf0, 0x00, 0xf0, 0x00,
  0xf8, 0x00, 0x9c, 0x00, 0x0c, 0x00, 0x00, 0x00, };
